<?xml version="1.0" standalone="no"?>
<!DOCTYPE svg PUBLIC "-//W3C//DTD SVG 20010904//EN"
 "http://www.w3.org/TR/2001/REC-SVG-20010904/DTD/svg10.dtd">
<svg version="1.0" xmlns="http://www.w3.org/2000/svg"
 width="199.000000pt" height="165.000000pt" viewBox="0 0 199.000000 165.000000"
 preserveAspectRatio="xMidYMid meet">

<g transform="translate(0.000000,165.000000) scale(0.100000,-0.100000)"
fill="#000000" stroke="none">
<path d="M900 1644 c-76 -9 -78 -10 -85 -64 -8 -57 -6 -55 -121 -95 l-81 -29
-38 32 c-30 24 -42 29 -56 21 -36 -19 -137 -108 -174 -153 l-37 -46 32 -49 31
-50 -51 -100 c-41 -81 -56 -101 -73 -101 -12 0 -32 -3 -44 -6 -21 -6 -23 -3
-23 40 l0 47 -36 -3 -35 -3 -5 -130 c-3 -71 -10 -134 -15 -139 -5 -6 -24 -15
-41 -20 -23 -8 -34 -18 -36 -34 -3 -21 -2 -22 18 -10 29 18 47 -8 23 -34 -13
-15 -14 -18 -2 -18 8 0 23 6 34 14 19 13 20 12 17 -55 -4 -68 -3 -69 22 -69
25 0 26 2 27 63 1 41 3 54 8 37 5 -20 14 -26 44 -28 42 -4 45 -8 102 -142 l33
-78 -26 -36 c-22 -32 -24 -39 -13 -60 20 -36 96 -120 142 -157 l41 -32 42 22
41 22 128 -60 c126 -61 127 -61 127 -95 0 -22 6 -36 16 -40 20 -8 258 -8 278
0 9 3 16 14 16 24 0 10 3 26 6 35 7 16 232 135 256 135 7 0 24 -9 38 -20 14
-11 29 -20 33 -20 28 -1 217 213 217 245 0 8 -11 27 -25 43 -14 17 -25 37 -25
45 0 11 36 110 45 125 1 1 15 -4 31 -13 36 -19 94 -19 137 -1 46 19 105 91
122 150 17 58 20 154 4 121 -6 -11 -27 -33 -49 -49 -22 -16 -40 -40 -43 -55
-9 -45 -59 -91 -99 -90 -28 0 -30 1 -12 9 24 10 40 80 18 80 -6 0 -12 -6 -11
-12 1 -35 -5 -47 -25 -54 -16 -5 -27 0 -45 20 -13 15 -23 34 -23 42 0 12 -6
15 -35 14 -3 0 -20 6 -39 14 l-34 14 10 -36 c14 -50 42 -103 66 -125 19 -18
19 -18 0 -55 -10 -20 -24 -54 -30 -74 -10 -34 -9 -39 20 -75 l30 -39 -35 -49
c-40 -57 -129 -152 -156 -166 -13 -7 -25 -5 -46 11 -16 11 -34 20 -40 20 -6 0
-70 -29 -141 -65 -122 -61 -130 -67 -130 -94 0 -17 -4 -32 -9 -35 -18 -11
-158 -19 -214 -12 -54 7 -56 8 -59 39 -3 30 -11 36 -137 101 l-135 69 -42 -24
-42 -23 -39 34 c-48 42 -133 141 -133 155 0 6 11 26 24 44 l24 33 -49 111
c-28 61 -55 115 -62 119 -7 4 -24 8 -38 8 -32 0 -39 15 -39 86 0 41 -3 53 -12
48 -7 -4 27 34 76 84 49 50 95 88 102 85 13 -5 54 30 54 47 0 14 -13 13 -28
-2 -20 -20 -40 7 -24 32 10 17 10 20 -3 20 -11 0 -5 17 21 65 l36 65 -32 50
-32 50 41 46 c22 25 68 68 101 95 l61 49 39 -31 39 -32 105 37 105 38 11 53
c10 50 13 53 48 59 48 8 146 7 197 -2 39 -7 40 -9 49 -59 l9 -51 101 -36 c56
-20 106 -36 111 -36 5 0 21 12 37 27 35 34 52 27 142 -58 90 -84 93 -89 61
-143 l-26 -45 31 -60 30 -61 -85 0 c-81 0 -94 -4 -77 -26 4 -5 0 -3 -8 3 -9 8
-13 27 -11 53 2 32 -1 40 -14 40 -14 0 -16 -8 -13 -39 3 -31 -1 -42 -17 -52
-18 -11 -19 -11 -6 4 12 15 9 17 -34 17 -42 0 -53 5 -92 41 -204 188 -544 117
-670 -139 -37 -75 -38 -78 -38 -194 0 -117 0 -117 -23 -115 -22 1 -23 5 -20
64 2 43 -1 63 -8 63 -8 0 -12 -36 -13 -115 -2 -129 -8 -119 79 -115 31 1 39
-4 73 -50 21 -28 66 -69 100 -91 86 -56 150 -72 261 -67 76 3 102 9 158 35 80
38 150 100 189 168 16 27 29 43 29 35 1 -10 9 -5 24 13 l22 28 15 -28 c13 -25
14 -7 17 182 l2 210 76 -3 c75 -4 77 -3 112 30 35 32 35 32 -4 -14 -22 -26
-46 -66 -53 -90 -7 -24 -19 -56 -27 -71 -8 -16 -14 -34 -13 -40 0 -7 4 -2 9
10 8 20 11 20 47 7 54 -19 58 -18 60 20 2 46 30 104 60 123 13 9 26 14 28 11
3 -3 10 -41 17 -86 6 -45 15 -82 19 -82 9 0 2 86 -11 138 -7 27 -6 32 9 32 30
0 69 -38 87 -86 l17 -45 37 36 c20 19 40 32 44 28 5 -5 -10 19 -33 53 -54 79
-102 107 -179 104 -123 -5 -118 -6 -152 61 l-31 60 26 45 c32 54 30 57 -70
153 -96 91 -117 101 -148 74 -39 -35 -47 -36 -142 -2 l-94 33 -11 53 c-7 34
-17 54 -28 57 -26 8 -173 14 -212 10z m185 -428 c63 -16 120 -46 165 -85 l35
-30 -112 -1 c-62 0 -113 -3 -113 -7 0 -5 -58 -7 -130 -5 l-130 3 0 -187 0
-187 31 -67 c26 -56 35 -67 55 -67 l24 0 0 128 c0 108 -2 129 -15 129 -12 0
-15 16 -15 85 l0 85 68 0 c37 0 91 3 120 6 l52 7 0 -92 c0 -54 -4 -91 -10 -91
-6 0 -10 -48 -10 -125 l0 -125 25 0 c40 0 48 36 54 240 l6 185 80 3 80 2 18
-31 c14 -25 17 -56 17 -172 0 -136 -1 -144 -27 -196 -59 -115 -174 -198 -307
-222 -79 -15 -158 -3 -241 35 -53 24 -147 102 -166 138 -9 16 -5 18 31 18 l40
0 0 -40 0 -40 45 0 45 0 0 89 c0 85 -1 90 -22 93 -23 3 -23 4 -26 201 l-2 197
-40 0 -40 0 -2 -197 -3 -198 -42 -3 c-39 -3 -43 -1 -50 25 -4 15 -7 62 -7 103
3 177 114 329 283 387 76 26 162 29 236 9z m304 -200 c11 -14 6 -15 -27 -7 -4
1 8 21 12 21 2 0 9 -6 15 -14z m-1129 -29 c0 -1 -26 -27 -57 -57 -32 -30 -50
-46 -40 -34 9 11 17 37 17 57 0 36 1 37 40 37 22 0 40 -1 40 -3z m257 -369
c-2 -13 -4 -3 -4 22 0 25 2 35 4 23 2 -13 2 -33 0 -45z"/>
<path d="M401 840 c-1 -202 2 -260 11 -260 10 0 13 58 13 260 0 193 -3 260
-12 260 -9 0 -12 -68 -12 -260z"/>
<path d="M445 840 c0 -201 3 -260 13 -260 9 0 12 59 12 260 0 201 -3 260 -12
260 -10 0 -13 -59 -13 -260z"/>
<path d="M490 965 c0 -83 4 -135 10 -135 6 0 10 44 10 113 0 61 3 122 6 135 5
16 2 22 -10 22 -14 0 -16 -17 -16 -135z"/>
<path d="M212 867 l-22 -24 60 -126 c61 -126 61 -127 95 -127 19 0 35 2 35 3
0 7 -140 297 -143 297 -2 0 -13 -10 -25 -23z"/>
<path d="M1728 833 c7 -3 16 -2 19 1 4 3 -2 6 -13 5 -11 0 -14 -3 -6 -6z"/>
<path d="M1698 763 c7 -3 16 -2 19 1 4 3 -2 6 -13 5 -11 0 -14 -3 -6 -6z"/>
</g>
</svg>
